<mxfile host="Electron" modified="2024-02-29T02:23:51.484Z" agent="Mozilla/5.0 (X11; Linux x86_64) AppleWebKit/537.36 (KHTML, like Gecko) draw.io/23.1.5 Chrome/120.0.6099.109 Electron/28.1.0 Safari/537.36" etag="2701C_XE-Hs5Af7uwgr-" version="23.1.5" type="device">
  <diagram name="Page-1" id="J7lLYT8vPqROPH7tZ1qL">
    <mxGraphModel dx="1186" dy="733" grid="1" gridSize="10" guides="1" tooltips="1" connect="1" arrows="1" fold="1" page="1" pageScale="1" pageWidth="5000" pageHeight="5000" math="0" shadow="0">
      <root>
        <mxCell id="0" />
        <mxCell id="1" parent="0" />
        <mxCell id="R6GWSJiUPZhqTE8_T_ZJ-2" value="TaskManager[TaskSubjectGeneric]" style="swimlane;fontStyle=1;align=center;verticalAlign=top;childLayout=stackLayout;horizontal=1;startSize=26;horizontalStack=0;resizeParent=1;resizeParentMax=0;resizeLast=0;collapsible=1;marginBottom=0;whiteSpace=wrap;html=1;" vertex="1" parent="1">
          <mxGeometry x="100" y="60" width="260" height="320" as="geometry" />
        </mxCell>
        <mxCell id="R6GWSJiUPZhqTE8_T_ZJ-3" value="identifier: string" style="text;strokeColor=none;fillColor=none;align=left;verticalAlign=top;spacingLeft=4;spacingRight=4;overflow=hidden;rotatable=0;points=[[0,0.5],[1,0.5]];portConstraint=eastwest;whiteSpace=wrap;html=1;" vertex="1" parent="R6GWSJiUPZhqTE8_T_ZJ-2">
          <mxGeometry y="26" width="260" height="26" as="geometry" />
        </mxCell>
        <mxCell id="R6GWSJiUPZhqTE8_T_ZJ-8" value="subject: TaskSubjectGeneric" style="text;strokeColor=none;fillColor=none;align=left;verticalAlign=top;spacingLeft=4;spacingRight=4;overflow=hidden;rotatable=0;points=[[0,0.5],[1,0.5]];portConstraint=eastwest;whiteSpace=wrap;html=1;" vertex="1" parent="R6GWSJiUPZhqTE8_T_ZJ-2">
          <mxGeometry y="52" width="260" height="26" as="geometry" />
        </mxCell>
        <mxCell id="R6GWSJiUPZhqTE8_T_ZJ-7" value="logger: logging.Logger" style="text;strokeColor=none;fillColor=none;align=left;verticalAlign=top;spacingLeft=4;spacingRight=4;overflow=hidden;rotatable=0;points=[[0,0.5],[1,0.5]];portConstraint=eastwest;whiteSpace=wrap;html=1;" vertex="1" parent="R6GWSJiUPZhqTE8_T_ZJ-2">
          <mxGeometry y="78" width="260" height="26" as="geometry" />
        </mxCell>
        <mxCell id="R6GWSJiUPZhqTE8_T_ZJ-6" value="run_interval: int" style="text;strokeColor=none;fillColor=none;align=left;verticalAlign=top;spacingLeft=4;spacingRight=4;overflow=hidden;rotatable=0;points=[[0,0.5],[1,0.5]];portConstraint=eastwest;whiteSpace=wrap;html=1;" vertex="1" parent="R6GWSJiUPZhqTE8_T_ZJ-2">
          <mxGeometry y="104" width="260" height="26" as="geometry" />
        </mxCell>
        <mxCell id="R6GWSJiUPZhqTE8_T_ZJ-16" style="edgeStyle=orthogonalEdgeStyle;rounded=0;orthogonalLoop=1;jettySize=auto;html=1;exitX=0;exitY=0.5;exitDx=0;exitDy=0;entryX=0;entryY=0.5;entryDx=0;entryDy=0;" edge="1" parent="R6GWSJiUPZhqTE8_T_ZJ-2" source="R6GWSJiUPZhqTE8_T_ZJ-9" target="R6GWSJiUPZhqTE8_T_ZJ-10">
          <mxGeometry relative="1" as="geometry">
            <mxPoint x="-30" y="200" as="targetPoint" />
            <Array as="points">
              <mxPoint y="150" />
              <mxPoint x="-30" y="150" />
              <mxPoint x="-30" y="203" />
            </Array>
          </mxGeometry>
        </mxCell>
        <mxCell id="R6GWSJiUPZhqTE8_T_ZJ-9" value="task_list: dict[str, Task]" style="text;strokeColor=none;fillColor=none;align=left;verticalAlign=top;spacingLeft=4;spacingRight=4;overflow=hidden;rotatable=0;points=[[0,0.5],[1,0.5]];portConstraint=eastwest;whiteSpace=wrap;html=1;" vertex="1" parent="R6GWSJiUPZhqTE8_T_ZJ-2">
          <mxGeometry y="130" width="260" height="26" as="geometry" />
        </mxCell>
        <mxCell id="R6GWSJiUPZhqTE8_T_ZJ-4" value="" style="line;strokeWidth=1;fillColor=none;align=left;verticalAlign=middle;spacingTop=-1;spacingLeft=3;spacingRight=3;rotatable=0;labelPosition=right;points=[];portConstraint=eastwest;strokeColor=inherit;" vertex="1" parent="R6GWSJiUPZhqTE8_T_ZJ-2">
          <mxGeometry y="156" width="260" height="8" as="geometry" />
        </mxCell>
        <mxCell id="R6GWSJiUPZhqTE8_T_ZJ-13" style="edgeStyle=orthogonalEdgeStyle;rounded=0;orthogonalLoop=1;jettySize=auto;html=1;exitX=1;exitY=0.5;exitDx=0;exitDy=0;entryX=1;entryY=0.5;entryDx=0;entryDy=0;" edge="1" parent="R6GWSJiUPZhqTE8_T_ZJ-2" source="R6GWSJiUPZhqTE8_T_ZJ-5" target="R6GWSJiUPZhqTE8_T_ZJ-9">
          <mxGeometry relative="1" as="geometry">
            <mxPoint x="290" y="150" as="targetPoint" />
            <Array as="points">
              <mxPoint x="260" y="180" />
              <mxPoint x="290" y="180" />
              <mxPoint x="290" y="143" />
            </Array>
          </mxGeometry>
        </mxCell>
        <mxCell id="R6GWSJiUPZhqTE8_T_ZJ-5" value="attach_task(task_id: str, task: Task) -&amp;gt; None" style="text;strokeColor=none;fillColor=none;align=left;verticalAlign=top;spacingLeft=4;spacingRight=4;overflow=hidden;rotatable=0;points=[[0,0.5],[1,0.5]];portConstraint=eastwest;whiteSpace=wrap;html=1;" vertex="1" parent="R6GWSJiUPZhqTE8_T_ZJ-2">
          <mxGeometry y="164" width="260" height="26" as="geometry" />
        </mxCell>
        <mxCell id="R6GWSJiUPZhqTE8_T_ZJ-10" value="async run() -&amp;gt; Awaitable" style="text;strokeColor=none;fillColor=none;align=left;verticalAlign=top;spacingLeft=4;spacingRight=4;overflow=hidden;rotatable=0;points=[[0,0.5],[1,0.5]];portConstraint=eastwest;whiteSpace=wrap;html=1;" vertex="1" parent="R6GWSJiUPZhqTE8_T_ZJ-2">
          <mxGeometry y="190" width="260" height="26" as="geometry" />
        </mxCell>
        <mxCell id="R6GWSJiUPZhqTE8_T_ZJ-21" value="start() -&amp;gt; None" style="text;strokeColor=none;fillColor=none;align=left;verticalAlign=top;spacingLeft=4;spacingRight=4;overflow=hidden;rotatable=0;points=[[0,0.5],[1,0.5]];portConstraint=eastwest;whiteSpace=wrap;html=1;" vertex="1" parent="R6GWSJiUPZhqTE8_T_ZJ-2">
          <mxGeometry y="216" width="260" height="26" as="geometry" />
        </mxCell>
        <mxCell id="R6GWSJiUPZhqTE8_T_ZJ-20" value="async kill() -&amp;gt; None" style="text;strokeColor=none;fillColor=none;align=left;verticalAlign=top;spacingLeft=4;spacingRight=4;overflow=hidden;rotatable=0;points=[[0,0.5],[1,0.5]];portConstraint=eastwest;whiteSpace=wrap;html=1;" vertex="1" parent="R6GWSJiUPZhqTE8_T_ZJ-2">
          <mxGeometry y="242" width="260" height="26" as="geometry" />
        </mxCell>
        <mxCell id="R6GWSJiUPZhqTE8_T_ZJ-19" value="get_logger() -&amp;gt; logging.Logger | None" style="text;strokeColor=none;fillColor=none;align=left;verticalAlign=top;spacingLeft=4;spacingRight=4;overflow=hidden;rotatable=0;points=[[0,0.5],[1,0.5]];portConstraint=eastwest;whiteSpace=wrap;html=1;" vertex="1" parent="R6GWSJiUPZhqTE8_T_ZJ-2">
          <mxGeometry y="268" width="260" height="26" as="geometry" />
        </mxCell>
        <mxCell id="R6GWSJiUPZhqTE8_T_ZJ-18" value="get_subject() -&amp;gt; TaskSubjectGeneric" style="text;strokeColor=none;fillColor=none;align=left;verticalAlign=top;spacingLeft=4;spacingRight=4;overflow=hidden;rotatable=0;points=[[0,0.5],[1,0.5]];portConstraint=eastwest;whiteSpace=wrap;html=1;" vertex="1" parent="R6GWSJiUPZhqTE8_T_ZJ-2">
          <mxGeometry y="294" width="260" height="26" as="geometry" />
        </mxCell>
        <mxCell id="R6GWSJiUPZhqTE8_T_ZJ-32" value="" style="endArrow=diamondThin;endFill=1;endSize=24;html=1;rounded=0;exitX=1;exitY=0.5;exitDx=0;exitDy=0;" edge="1" parent="1" source="R6GWSJiUPZhqTE8_T_ZJ-9" target="R6GWSJiUPZhqTE8_T_ZJ-22">
          <mxGeometry width="160" relative="1" as="geometry">
            <mxPoint x="470" y="450" as="sourcePoint" />
            <mxPoint x="480" y="220" as="targetPoint" />
          </mxGeometry>
        </mxCell>
        <mxCell id="R6GWSJiUPZhqTE8_T_ZJ-33" value="TaskManager" style="swimlane;whiteSpace=wrap;html=1;" vertex="1" parent="1">
          <mxGeometry x="40" y="20" width="770" height="414" as="geometry" />
        </mxCell>
        <mxCell id="R6GWSJiUPZhqTE8_T_ZJ-22" value="abstract Task[TaskSubjectGeneric]" style="swimlane;fontStyle=1;align=center;verticalAlign=top;childLayout=stackLayout;horizontal=1;startSize=26;horizontalStack=0;resizeParent=1;resizeParentMax=0;resizeLast=0;collapsible=1;marginBottom=0;whiteSpace=wrap;html=1;" vertex="1" parent="R6GWSJiUPZhqTE8_T_ZJ-33">
          <mxGeometry x="400" y="44" width="330" height="210" as="geometry" />
        </mxCell>
        <mxCell id="R6GWSJiUPZhqTE8_T_ZJ-23" value="logger: logging.Logger | None" style="text;strokeColor=none;fillColor=none;align=left;verticalAlign=top;spacingLeft=4;spacingRight=4;overflow=hidden;rotatable=0;points=[[0,0.5],[1,0.5]];portConstraint=eastwest;whiteSpace=wrap;html=1;" vertex="1" parent="R6GWSJiUPZhqTE8_T_ZJ-22">
          <mxGeometry y="26" width="330" height="26" as="geometry" />
        </mxCell>
        <mxCell id="R6GWSJiUPZhqTE8_T_ZJ-27" value="subject: TaskSubjectGeneric | None" style="text;strokeColor=none;fillColor=none;align=left;verticalAlign=top;spacingLeft=4;spacingRight=4;overflow=hidden;rotatable=0;points=[[0,0.5],[1,0.5]];portConstraint=eastwest;whiteSpace=wrap;html=1;" vertex="1" parent="R6GWSJiUPZhqTE8_T_ZJ-22">
          <mxGeometry y="52" width="330" height="26" as="geometry" />
        </mxCell>
        <mxCell id="R6GWSJiUPZhqTE8_T_ZJ-26" value="exception_handler:&amp;nbsp;Callable[[Exception, Task], None]" style="text;strokeColor=none;fillColor=none;align=left;verticalAlign=top;spacingLeft=4;spacingRight=4;overflow=hidden;rotatable=0;points=[[0,0.5],[1,0.5]];portConstraint=eastwest;whiteSpace=wrap;html=1;" vertex="1" parent="R6GWSJiUPZhqTE8_T_ZJ-22">
          <mxGeometry y="78" width="330" height="26" as="geometry" />
        </mxCell>
        <mxCell id="R6GWSJiUPZhqTE8_T_ZJ-24" value="" style="line;strokeWidth=1;fillColor=none;align=left;verticalAlign=middle;spacingTop=-1;spacingLeft=3;spacingRight=3;rotatable=0;labelPosition=right;points=[];portConstraint=eastwest;strokeColor=inherit;" vertex="1" parent="R6GWSJiUPZhqTE8_T_ZJ-22">
          <mxGeometry y="104" width="330" height="8" as="geometry" />
        </mxCell>
        <mxCell id="R6GWSJiUPZhqTE8_T_ZJ-25" value="abstract async task() -&amp;gt; Awaitable" style="text;strokeColor=none;fillColor=none;align=left;verticalAlign=top;spacingLeft=4;spacingRight=4;overflow=hidden;rotatable=0;points=[[0,0.5],[1,0.5]];portConstraint=eastwest;whiteSpace=wrap;html=1;" vertex="1" parent="R6GWSJiUPZhqTE8_T_ZJ-22">
          <mxGeometry y="112" width="330" height="26" as="geometry" />
        </mxCell>
        <mxCell id="R6GWSJiUPZhqTE8_T_ZJ-30" value="async def run() -&amp;gt; Awaitable" style="text;strokeColor=none;fillColor=none;align=left;verticalAlign=top;spacingLeft=4;spacingRight=4;overflow=hidden;rotatable=0;points=[[0,0.5],[1,0.5]];portConstraint=eastwest;whiteSpace=wrap;html=1;" vertex="1" parent="R6GWSJiUPZhqTE8_T_ZJ-22">
          <mxGeometry y="138" width="330" height="26" as="geometry" />
        </mxCell>
        <mxCell id="R6GWSJiUPZhqTE8_T_ZJ-29" value="attach_task_manager(manager: TaskManager[TaskSubjectGeneric]) -&amp;gt; None" style="text;strokeColor=none;fillColor=none;align=left;verticalAlign=top;spacingLeft=4;spacingRight=4;overflow=hidden;rotatable=0;points=[[0,0.5],[1,0.5]];portConstraint=eastwest;whiteSpace=wrap;html=1;" vertex="1" parent="R6GWSJiUPZhqTE8_T_ZJ-22">
          <mxGeometry y="164" width="330" height="46" as="geometry" />
        </mxCell>
        <mxCell id="R6GWSJiUPZhqTE8_T_ZJ-34" value="DeviceManager" style="swimlane;whiteSpace=wrap;html=1;startSize=23;" vertex="1" parent="1">
          <mxGeometry x="30" y="490" width="1770" height="710" as="geometry" />
        </mxCell>
        <mxCell id="R6GWSJiUPZhqTE8_T_ZJ-43" value="Scanner" style="swimlane;whiteSpace=wrap;html=1;startSize=23;" vertex="1" parent="R6GWSJiUPZhqTE8_T_ZJ-34">
          <mxGeometry x="30" y="50" width="1370" height="290" as="geometry" />
        </mxCell>
        <mxCell id="R6GWSJiUPZhqTE8_T_ZJ-35" value="ScanListener(Task[DeviceContainer])" style="swimlane;fontStyle=1;align=center;verticalAlign=top;childLayout=stackLayout;horizontal=1;startSize=26;horizontalStack=0;resizeParent=1;resizeParentMax=0;resizeLast=0;collapsible=1;marginBottom=0;whiteSpace=wrap;html=1;" vertex="1" parent="R6GWSJiUPZhqTE8_T_ZJ-43">
          <mxGeometry x="270" y="50" width="330" height="112" as="geometry" />
        </mxCell>
        <mxCell id="R6GWSJiUPZhqTE8_T_ZJ-124" value="udp_socket: ScanUDPSocket" style="text;strokeColor=none;fillColor=none;align=left;verticalAlign=top;spacingLeft=4;spacingRight=4;overflow=hidden;rotatable=0;points=[[0,0.5],[1,0.5]];portConstraint=eastwest;whiteSpace=wrap;html=1;" vertex="1" parent="R6GWSJiUPZhqTE8_T_ZJ-35">
          <mxGeometry y="26" width="330" height="26" as="geometry" />
        </mxCell>
        <mxCell id="R6GWSJiUPZhqTE8_T_ZJ-39" value="" style="line;strokeWidth=1;fillColor=none;align=left;verticalAlign=middle;spacingTop=-1;spacingLeft=3;spacingRight=3;rotatable=0;labelPosition=right;points=[];portConstraint=eastwest;strokeColor=inherit;" vertex="1" parent="R6GWSJiUPZhqTE8_T_ZJ-35">
          <mxGeometry y="52" width="330" height="8" as="geometry" />
        </mxCell>
        <mxCell id="R6GWSJiUPZhqTE8_T_ZJ-40" value="async receive_request() -&amp;gt; Awaitable" style="text;strokeColor=none;fillColor=none;align=left;verticalAlign=top;spacingLeft=4;spacingRight=4;overflow=hidden;rotatable=0;points=[[0,0.5],[1,0.5]];portConstraint=eastwest;whiteSpace=wrap;html=1;" vertex="1" parent="R6GWSJiUPZhqTE8_T_ZJ-35">
          <mxGeometry y="60" width="330" height="26" as="geometry" />
        </mxCell>
        <mxCell id="R6GWSJiUPZhqTE8_T_ZJ-41" value="async task() -&amp;gt; Awaitable" style="text;strokeColor=none;fillColor=none;align=left;verticalAlign=top;spacingLeft=4;spacingRight=4;overflow=hidden;rotatable=0;points=[[0,0.5],[1,0.5]];portConstraint=eastwest;whiteSpace=wrap;html=1;" vertex="1" parent="R6GWSJiUPZhqTE8_T_ZJ-35">
          <mxGeometry y="86" width="330" height="26" as="geometry" />
        </mxCell>
        <mxCell id="R6GWSJiUPZhqTE8_T_ZJ-54" value="CheckDeadScans(Task[DeviceContainer])" style="swimlane;fontStyle=1;align=center;verticalAlign=top;childLayout=stackLayout;horizontal=1;startSize=26;horizontalStack=0;resizeParent=1;resizeParentMax=0;resizeLast=0;collapsible=1;marginBottom=0;whiteSpace=wrap;html=1;" vertex="1" parent="R6GWSJiUPZhqTE8_T_ZJ-43">
          <mxGeometry x="270" y="200" width="330" height="60" as="geometry" />
        </mxCell>
        <mxCell id="R6GWSJiUPZhqTE8_T_ZJ-55" value="" style="line;strokeWidth=1;fillColor=none;align=left;verticalAlign=middle;spacingTop=-1;spacingLeft=3;spacingRight=3;rotatable=0;labelPosition=right;points=[];portConstraint=eastwest;strokeColor=inherit;" vertex="1" parent="R6GWSJiUPZhqTE8_T_ZJ-54">
          <mxGeometry y="26" width="330" height="8" as="geometry" />
        </mxCell>
        <mxCell id="R6GWSJiUPZhqTE8_T_ZJ-57" value="async task() -&amp;gt; Awaitable" style="text;strokeColor=none;fillColor=none;align=left;verticalAlign=top;spacingLeft=4;spacingRight=4;overflow=hidden;rotatable=0;points=[[0,0.5],[1,0.5]];portConstraint=eastwest;whiteSpace=wrap;html=1;" vertex="1" parent="R6GWSJiUPZhqTE8_T_ZJ-54">
          <mxGeometry y="34" width="330" height="26" as="geometry" />
        </mxCell>
        <mxCell id="R6GWSJiUPZhqTE8_T_ZJ-60" value="scanner: TaskManager[DeviceContainer]" style="rounded=0;whiteSpace=wrap;html=1;" vertex="1" parent="R6GWSJiUPZhqTE8_T_ZJ-43">
          <mxGeometry x="770" y="125" width="200" height="60" as="geometry" />
        </mxCell>
        <mxCell id="R6GWSJiUPZhqTE8_T_ZJ-63" value="" style="endArrow=diamondThin;endFill=1;endSize=24;html=1;rounded=0;" edge="1" parent="R6GWSJiUPZhqTE8_T_ZJ-43" source="R6GWSJiUPZhqTE8_T_ZJ-60" target="R6GWSJiUPZhqTE8_T_ZJ-54">
          <mxGeometry width="160" relative="1" as="geometry">
            <mxPoint x="470" y="400" as="sourcePoint" />
            <mxPoint x="630" y="400" as="targetPoint" />
          </mxGeometry>
        </mxCell>
        <mxCell id="R6GWSJiUPZhqTE8_T_ZJ-64" value="" style="endArrow=diamondThin;endFill=1;endSize=24;html=1;rounded=0;" edge="1" parent="R6GWSJiUPZhqTE8_T_ZJ-43" source="R6GWSJiUPZhqTE8_T_ZJ-60" target="R6GWSJiUPZhqTE8_T_ZJ-35">
          <mxGeometry width="160" relative="1" as="geometry">
            <mxPoint x="410" y="470" as="sourcePoint" />
            <mxPoint x="570" y="470" as="targetPoint" />
          </mxGeometry>
        </mxCell>
        <mxCell id="R6GWSJiUPZhqTE8_T_ZJ-65" value="ConnectRequestSchema(pydantic.BaseModel)" style="swimlane;fontStyle=0;childLayout=stackLayout;horizontal=1;startSize=30;horizontalStack=0;resizeParent=1;resizeParentMax=0;resizeLast=0;collapsible=1;marginBottom=0;whiteSpace=wrap;html=1;" vertex="1" parent="R6GWSJiUPZhqTE8_T_ZJ-43">
          <mxGeometry x="1050" y="60" width="270" height="150" as="geometry" />
        </mxCell>
        <mxCell id="R6GWSJiUPZhqTE8_T_ZJ-66" value="ip: str" style="text;strokeColor=none;fillColor=none;align=left;verticalAlign=middle;spacingLeft=4;spacingRight=4;overflow=hidden;points=[[0,0.5],[1,0.5]];portConstraint=eastwest;rotatable=0;whiteSpace=wrap;html=1;" vertex="1" parent="R6GWSJiUPZhqTE8_T_ZJ-65">
          <mxGeometry y="30" width="270" height="30" as="geometry" />
        </mxCell>
        <mxCell id="R6GWSJiUPZhqTE8_T_ZJ-67" value="name: str" style="text;strokeColor=none;fillColor=none;align=left;verticalAlign=middle;spacingLeft=4;spacingRight=4;overflow=hidden;points=[[0,0.5],[1,0.5]];portConstraint=eastwest;rotatable=0;whiteSpace=wrap;html=1;" vertex="1" parent="R6GWSJiUPZhqTE8_T_ZJ-65">
          <mxGeometry y="60" width="270" height="30" as="geometry" />
        </mxCell>
        <mxCell id="R6GWSJiUPZhqTE8_T_ZJ-68" value="id: str" style="text;strokeColor=none;fillColor=none;align=left;verticalAlign=middle;spacingLeft=4;spacingRight=4;overflow=hidden;points=[[0,0.5],[1,0.5]];portConstraint=eastwest;rotatable=0;whiteSpace=wrap;html=1;" vertex="1" parent="R6GWSJiUPZhqTE8_T_ZJ-65">
          <mxGeometry y="90" width="270" height="30" as="geometry" />
        </mxCell>
        <mxCell id="R6GWSJiUPZhqTE8_T_ZJ-70" value="expidited: bool" style="text;strokeColor=none;fillColor=none;align=left;verticalAlign=middle;spacingLeft=4;spacingRight=4;overflow=hidden;points=[[0,0.5],[1,0.5]];portConstraint=eastwest;rotatable=0;whiteSpace=wrap;html=1;" vertex="1" parent="R6GWSJiUPZhqTE8_T_ZJ-65">
          <mxGeometry y="120" width="270" height="30" as="geometry" />
        </mxCell>
        <mxCell id="R6GWSJiUPZhqTE8_T_ZJ-72" value="Use" style="endArrow=open;endSize=12;dashed=1;html=1;rounded=0;" edge="1" parent="R6GWSJiUPZhqTE8_T_ZJ-43" source="R6GWSJiUPZhqTE8_T_ZJ-65" target="R6GWSJiUPZhqTE8_T_ZJ-35">
          <mxGeometry width="160" relative="1" as="geometry">
            <mxPoint x="770" y="510" as="sourcePoint" />
            <mxPoint x="930" y="510" as="targetPoint" />
            <Array as="points">
              <mxPoint x="690" y="80" />
              <mxPoint x="630" y="80" />
            </Array>
          </mxGeometry>
        </mxCell>
        <mxCell id="R6GWSJiUPZhqTE8_T_ZJ-52" value="DeviceContainer: dict[str, Device]" style="html=1;whiteSpace=wrap;" vertex="1" parent="R6GWSJiUPZhqTE8_T_ZJ-43">
          <mxGeometry x="770" y="220" width="210" height="50" as="geometry" />
        </mxCell>
        <mxCell id="R6GWSJiUPZhqTE8_T_ZJ-90" value="" style="endArrow=open;endFill=1;endSize=12;html=1;rounded=0;entryX=1;entryY=0.25;entryDx=0;entryDy=0;" edge="1" parent="R6GWSJiUPZhqTE8_T_ZJ-43" source="R6GWSJiUPZhqTE8_T_ZJ-52" target="R6GWSJiUPZhqTE8_T_ZJ-54">
          <mxGeometry width="160" relative="1" as="geometry">
            <mxPoint x="570" y="270" as="sourcePoint" />
            <mxPoint x="530" y="220" as="targetPoint" />
            <Array as="points">
              <mxPoint x="630" y="245" />
            </Array>
          </mxGeometry>
        </mxCell>
        <mxCell id="R6GWSJiUPZhqTE8_T_ZJ-91" value="" style="endArrow=open;endFill=1;endSize=12;html=1;rounded=0;exitX=0;exitY=0.5;exitDx=0;exitDy=0;" edge="1" parent="R6GWSJiUPZhqTE8_T_ZJ-43" source="R6GWSJiUPZhqTE8_T_ZJ-52" target="R6GWSJiUPZhqTE8_T_ZJ-35">
          <mxGeometry width="160" relative="1" as="geometry">
            <mxPoint x="640" y="255" as="sourcePoint" />
            <mxPoint x="510" y="225" as="targetPoint" />
            <Array as="points">
              <mxPoint x="650" y="245" />
              <mxPoint x="650" y="170" />
            </Array>
          </mxGeometry>
        </mxCell>
        <mxCell id="R6GWSJiUPZhqTE8_T_ZJ-117" value="" style="endArrow=open;endFill=1;endSize=12;html=1;rounded=0;" edge="1" parent="R6GWSJiUPZhqTE8_T_ZJ-43" source="R6GWSJiUPZhqTE8_T_ZJ-52" target="R6GWSJiUPZhqTE8_T_ZJ-60">
          <mxGeometry width="160" relative="1" as="geometry">
            <mxPoint x="780" y="200" as="sourcePoint" />
            <mxPoint x="940" y="200" as="targetPoint" />
          </mxGeometry>
        </mxCell>
        <mxCell id="R6GWSJiUPZhqTE8_T_ZJ-118" value="AssociatedDeviceContainer" style="swimlane;fontStyle=1;align=center;verticalAlign=top;childLayout=stackLayout;horizontal=1;startSize=26;horizontalStack=0;resizeParent=1;resizeParentMax=0;resizeLast=0;collapsible=1;marginBottom=0;whiteSpace=wrap;html=1;" vertex="1" parent="R6GWSJiUPZhqTE8_T_ZJ-43">
          <mxGeometry x="20" y="52" width="200" height="110" as="geometry" />
        </mxCell>
        <mxCell id="R6GWSJiUPZhqTE8_T_ZJ-122" value="sock: socket.socket" style="text;strokeColor=none;fillColor=none;align=left;verticalAlign=top;spacingLeft=4;spacingRight=4;overflow=hidden;rotatable=0;points=[[0,0.5],[1,0.5]];portConstraint=eastwest;whiteSpace=wrap;html=1;" vertex="1" parent="R6GWSJiUPZhqTE8_T_ZJ-118">
          <mxGeometry y="26" width="200" height="26" as="geometry" />
        </mxCell>
        <mxCell id="R6GWSJiUPZhqTE8_T_ZJ-120" value="" style="line;strokeWidth=1;fillColor=none;align=left;verticalAlign=middle;spacingTop=-1;spacingLeft=3;spacingRight=3;rotatable=0;labelPosition=right;points=[];portConstraint=eastwest;strokeColor=inherit;" vertex="1" parent="R6GWSJiUPZhqTE8_T_ZJ-118">
          <mxGeometry y="52" width="200" height="8" as="geometry" />
        </mxCell>
        <mxCell id="R6GWSJiUPZhqTE8_T_ZJ-121" value="async receive() -&amp;gt;&amp;nbsp;dict[str, Union[str, int]]" style="text;strokeColor=none;fillColor=none;align=left;verticalAlign=top;spacingLeft=4;spacingRight=4;overflow=hidden;rotatable=0;points=[[0,0.5],[1,0.5]];portConstraint=eastwest;whiteSpace=wrap;html=1;" vertex="1" parent="R6GWSJiUPZhqTE8_T_ZJ-118">
          <mxGeometry y="60" width="200" height="50" as="geometry" />
        </mxCell>
        <mxCell id="R6GWSJiUPZhqTE8_T_ZJ-126" value="1" style="endArrow=open;html=1;endSize=12;startArrow=diamondThin;startSize=14;startFill=1;edgeStyle=orthogonalEdgeStyle;align=left;verticalAlign=bottom;rounded=0;exitX=1;exitY=0.5;exitDx=0;exitDy=0;entryX=0;entryY=0.5;entryDx=0;entryDy=0;" edge="1" parent="R6GWSJiUPZhqTE8_T_ZJ-43" source="R6GWSJiUPZhqTE8_T_ZJ-122" target="R6GWSJiUPZhqTE8_T_ZJ-124">
          <mxGeometry x="-1" y="3" relative="1" as="geometry">
            <mxPoint x="150" y="210" as="sourcePoint" />
            <mxPoint x="250" y="60" as="targetPoint" />
          </mxGeometry>
        </mxCell>
        <mxCell id="R6GWSJiUPZhqTE8_T_ZJ-73" value="AssociatedDeviceManager" style="swimlane;whiteSpace=wrap;html=1;startSize=23;" vertex="1" parent="R6GWSJiUPZhqTE8_T_ZJ-34">
          <mxGeometry x="30" y="380" width="1090" height="290" as="geometry" />
        </mxCell>
        <mxCell id="R6GWSJiUPZhqTE8_T_ZJ-74" value="ScanListener(Task[DeviceContainer])" style="swimlane;fontStyle=1;align=center;verticalAlign=top;childLayout=stackLayout;horizontal=1;startSize=26;horizontalStack=0;resizeParent=1;resizeParentMax=0;resizeLast=0;collapsible=1;marginBottom=0;whiteSpace=wrap;html=1;" vertex="1" parent="R6GWSJiUPZhqTE8_T_ZJ-73">
          <mxGeometry x="30" y="60" width="330" height="86" as="geometry" />
        </mxCell>
        <mxCell id="R6GWSJiUPZhqTE8_T_ZJ-75" value="" style="line;strokeWidth=1;fillColor=none;align=left;verticalAlign=middle;spacingTop=-1;spacingLeft=3;spacingRight=3;rotatable=0;labelPosition=right;points=[];portConstraint=eastwest;strokeColor=inherit;" vertex="1" parent="R6GWSJiUPZhqTE8_T_ZJ-74">
          <mxGeometry y="26" width="330" height="8" as="geometry" />
        </mxCell>
        <mxCell id="R6GWSJiUPZhqTE8_T_ZJ-76" value="async receive_request() -&amp;gt; Awaitable" style="text;strokeColor=none;fillColor=none;align=left;verticalAlign=top;spacingLeft=4;spacingRight=4;overflow=hidden;rotatable=0;points=[[0,0.5],[1,0.5]];portConstraint=eastwest;whiteSpace=wrap;html=1;" vertex="1" parent="R6GWSJiUPZhqTE8_T_ZJ-74">
          <mxGeometry y="34" width="330" height="26" as="geometry" />
        </mxCell>
        <mxCell id="R6GWSJiUPZhqTE8_T_ZJ-77" value="async task() -&amp;gt; Awaitable" style="text;strokeColor=none;fillColor=none;align=left;verticalAlign=top;spacingLeft=4;spacingRight=4;overflow=hidden;rotatable=0;points=[[0,0.5],[1,0.5]];portConstraint=eastwest;whiteSpace=wrap;html=1;" vertex="1" parent="R6GWSJiUPZhqTE8_T_ZJ-74">
          <mxGeometry y="60" width="330" height="26" as="geometry" />
        </mxCell>
        <mxCell id="R6GWSJiUPZhqTE8_T_ZJ-78" value="CheckDeadDevices(Task[DeviceContainer])" style="swimlane;fontStyle=1;align=center;verticalAlign=top;childLayout=stackLayout;horizontal=1;startSize=26;horizontalStack=0;resizeParent=1;resizeParentMax=0;resizeLast=0;collapsible=1;marginBottom=0;whiteSpace=wrap;html=1;" vertex="1" parent="R6GWSJiUPZhqTE8_T_ZJ-73">
          <mxGeometry x="30" y="190" width="330" height="60" as="geometry" />
        </mxCell>
        <mxCell id="R6GWSJiUPZhqTE8_T_ZJ-79" value="" style="line;strokeWidth=1;fillColor=none;align=left;verticalAlign=middle;spacingTop=-1;spacingLeft=3;spacingRight=3;rotatable=0;labelPosition=right;points=[];portConstraint=eastwest;strokeColor=inherit;" vertex="1" parent="R6GWSJiUPZhqTE8_T_ZJ-78">
          <mxGeometry y="26" width="330" height="8" as="geometry" />
        </mxCell>
        <mxCell id="R6GWSJiUPZhqTE8_T_ZJ-80" value="async task() -&amp;gt; Awaitable" style="text;strokeColor=none;fillColor=none;align=left;verticalAlign=top;spacingLeft=4;spacingRight=4;overflow=hidden;rotatable=0;points=[[0,0.5],[1,0.5]];portConstraint=eastwest;whiteSpace=wrap;html=1;" vertex="1" parent="R6GWSJiUPZhqTE8_T_ZJ-78">
          <mxGeometry y="34" width="330" height="26" as="geometry" />
        </mxCell>
        <mxCell id="R6GWSJiUPZhqTE8_T_ZJ-81" value="associated_device_manager: TaskManager[DeviceContainer]" style="rounded=0;whiteSpace=wrap;html=1;" vertex="1" parent="R6GWSJiUPZhqTE8_T_ZJ-73">
          <mxGeometry x="490" y="120" width="200" height="60" as="geometry" />
        </mxCell>
        <mxCell id="R6GWSJiUPZhqTE8_T_ZJ-82" value="" style="endArrow=diamondThin;endFill=1;endSize=24;html=1;rounded=0;" edge="1" parent="R6GWSJiUPZhqTE8_T_ZJ-73" source="R6GWSJiUPZhqTE8_T_ZJ-81" target="R6GWSJiUPZhqTE8_T_ZJ-78">
          <mxGeometry width="160" relative="1" as="geometry">
            <mxPoint x="330" y="390" as="sourcePoint" />
            <mxPoint x="490" y="390" as="targetPoint" />
          </mxGeometry>
        </mxCell>
        <mxCell id="R6GWSJiUPZhqTE8_T_ZJ-83" value="" style="endArrow=diamondThin;endFill=1;endSize=24;html=1;rounded=0;" edge="1" parent="R6GWSJiUPZhqTE8_T_ZJ-73" source="R6GWSJiUPZhqTE8_T_ZJ-81" target="R6GWSJiUPZhqTE8_T_ZJ-74">
          <mxGeometry width="160" relative="1" as="geometry">
            <mxPoint x="270" y="460" as="sourcePoint" />
            <mxPoint x="430" y="460" as="targetPoint" />
          </mxGeometry>
        </mxCell>
        <mxCell id="R6GWSJiUPZhqTE8_T_ZJ-98" value="AssociatedDeviceContainer" style="swimlane;fontStyle=1;align=center;verticalAlign=top;childLayout=stackLayout;horizontal=1;startSize=26;horizontalStack=0;resizeParent=1;resizeParentMax=0;resizeLast=0;collapsible=1;marginBottom=0;whiteSpace=wrap;html=1;" vertex="1" parent="R6GWSJiUPZhqTE8_T_ZJ-73">
          <mxGeometry x="720" y="50" width="330" height="86" as="geometry" />
        </mxCell>
        <mxCell id="R6GWSJiUPZhqTE8_T_ZJ-101" value="database_interface: DatabaseInterface" style="text;strokeColor=none;fillColor=none;align=left;verticalAlign=top;spacingLeft=4;spacingRight=4;overflow=hidden;rotatable=0;points=[[0,0.5],[1,0.5]];portConstraint=eastwest;whiteSpace=wrap;html=1;" vertex="1" parent="R6GWSJiUPZhqTE8_T_ZJ-98">
          <mxGeometry y="26" width="330" height="26" as="geometry" />
        </mxCell>
        <mxCell id="R6GWSJiUPZhqTE8_T_ZJ-102" value="" style="line;strokeWidth=1;fillColor=none;align=left;verticalAlign=middle;spacingTop=-1;spacingLeft=3;spacingRight=3;rotatable=0;labelPosition=right;points=[];portConstraint=eastwest;strokeColor=inherit;" vertex="1" parent="R6GWSJiUPZhqTE8_T_ZJ-98">
          <mxGeometry y="52" width="330" height="8" as="geometry" />
        </mxCell>
        <mxCell id="R6GWSJiUPZhqTE8_T_ZJ-103" value="pop(key: str) -&amp;gt; None" style="text;strokeColor=none;fillColor=none;align=left;verticalAlign=top;spacingLeft=4;spacingRight=4;overflow=hidden;rotatable=0;points=[[0,0.5],[1,0.5]];portConstraint=eastwest;whiteSpace=wrap;html=1;" vertex="1" parent="R6GWSJiUPZhqTE8_T_ZJ-98">
          <mxGeometry y="60" width="330" height="26" as="geometry" />
        </mxCell>
        <mxCell id="R6GWSJiUPZhqTE8_T_ZJ-106" value="" style="endArrow=open;endFill=1;endSize=12;html=1;rounded=0;" edge="1" parent="R6GWSJiUPZhqTE8_T_ZJ-73" source="R6GWSJiUPZhqTE8_T_ZJ-98" target="R6GWSJiUPZhqTE8_T_ZJ-74">
          <mxGeometry width="160" relative="1" as="geometry">
            <mxPoint x="400" y="340" as="sourcePoint" />
            <mxPoint x="560" y="340" as="targetPoint" />
            <Array as="points">
              <mxPoint x="390" y="70" />
            </Array>
          </mxGeometry>
        </mxCell>
        <mxCell id="R6GWSJiUPZhqTE8_T_ZJ-107" value="" style="endArrow=open;endFill=1;endSize=12;html=1;rounded=0;" edge="1" parent="R6GWSJiUPZhqTE8_T_ZJ-73" source="R6GWSJiUPZhqTE8_T_ZJ-98" target="R6GWSJiUPZhqTE8_T_ZJ-78">
          <mxGeometry width="160" relative="1" as="geometry">
            <mxPoint x="690" y="60" as="sourcePoint" />
            <mxPoint x="330" y="66" as="targetPoint" />
            <Array as="points">
              <mxPoint x="885" y="220" />
            </Array>
          </mxGeometry>
        </mxCell>
        <mxCell id="R6GWSJiUPZhqTE8_T_ZJ-108" value="Device" style="swimlane;whiteSpace=wrap;html=1;" vertex="1" parent="1">
          <mxGeometry x="1870" y="50" width="770" height="1150" as="geometry" />
        </mxCell>
        <mxCell id="R6GWSJiUPZhqTE8_T_ZJ-109" value="Device" style="swimlane;fontStyle=1;align=center;verticalAlign=top;childLayout=stackLayout;horizontal=1;startSize=26;horizontalStack=0;resizeParent=1;resizeParentMax=0;resizeLast=0;collapsible=1;marginBottom=0;whiteSpace=wrap;html=1;" vertex="1" parent="R6GWSJiUPZhqTE8_T_ZJ-108">
          <mxGeometry x="40" y="60" width="330" height="210" as="geometry" />
        </mxCell>
        <mxCell id="R6GWSJiUPZhqTE8_T_ZJ-110" value="logger: logging.Logger | None" style="text;strokeColor=none;fillColor=none;align=left;verticalAlign=top;spacingLeft=4;spacingRight=4;overflow=hidden;rotatable=0;points=[[0,0.5],[1,0.5]];portConstraint=eastwest;whiteSpace=wrap;html=1;" vertex="1" parent="R6GWSJiUPZhqTE8_T_ZJ-109">
          <mxGeometry y="26" width="330" height="26" as="geometry" />
        </mxCell>
        <mxCell id="R6GWSJiUPZhqTE8_T_ZJ-111" value="subject: TaskSubjectGeneric | None" style="text;strokeColor=none;fillColor=none;align=left;verticalAlign=top;spacingLeft=4;spacingRight=4;overflow=hidden;rotatable=0;points=[[0,0.5],[1,0.5]];portConstraint=eastwest;whiteSpace=wrap;html=1;" vertex="1" parent="R6GWSJiUPZhqTE8_T_ZJ-109">
          <mxGeometry y="52" width="330" height="26" as="geometry" />
        </mxCell>
        <mxCell id="R6GWSJiUPZhqTE8_T_ZJ-112" value="exception_handler:&amp;nbsp;Callable[[Exception, Task], None]" style="text;strokeColor=none;fillColor=none;align=left;verticalAlign=top;spacingLeft=4;spacingRight=4;overflow=hidden;rotatable=0;points=[[0,0.5],[1,0.5]];portConstraint=eastwest;whiteSpace=wrap;html=1;" vertex="1" parent="R6GWSJiUPZhqTE8_T_ZJ-109">
          <mxGeometry y="78" width="330" height="26" as="geometry" />
        </mxCell>
        <mxCell id="R6GWSJiUPZhqTE8_T_ZJ-113" value="" style="line;strokeWidth=1;fillColor=none;align=left;verticalAlign=middle;spacingTop=-1;spacingLeft=3;spacingRight=3;rotatable=0;labelPosition=right;points=[];portConstraint=eastwest;strokeColor=inherit;" vertex="1" parent="R6GWSJiUPZhqTE8_T_ZJ-109">
          <mxGeometry y="104" width="330" height="8" as="geometry" />
        </mxCell>
        <mxCell id="R6GWSJiUPZhqTE8_T_ZJ-114" value="abstract async task() -&amp;gt; Awaitable" style="text;strokeColor=none;fillColor=none;align=left;verticalAlign=top;spacingLeft=4;spacingRight=4;overflow=hidden;rotatable=0;points=[[0,0.5],[1,0.5]];portConstraint=eastwest;whiteSpace=wrap;html=1;" vertex="1" parent="R6GWSJiUPZhqTE8_T_ZJ-109">
          <mxGeometry y="112" width="330" height="26" as="geometry" />
        </mxCell>
        <mxCell id="R6GWSJiUPZhqTE8_T_ZJ-115" value="async def run() -&amp;gt; Awaitable" style="text;strokeColor=none;fillColor=none;align=left;verticalAlign=top;spacingLeft=4;spacingRight=4;overflow=hidden;rotatable=0;points=[[0,0.5],[1,0.5]];portConstraint=eastwest;whiteSpace=wrap;html=1;" vertex="1" parent="R6GWSJiUPZhqTE8_T_ZJ-109">
          <mxGeometry y="138" width="330" height="26" as="geometry" />
        </mxCell>
        <mxCell id="R6GWSJiUPZhqTE8_T_ZJ-116" value="attach_task_manager(manager: TaskManager[TaskSubjectGeneric]) -&amp;gt; None" style="text;strokeColor=none;fillColor=none;align=left;verticalAlign=top;spacingLeft=4;spacingRight=4;overflow=hidden;rotatable=0;points=[[0,0.5],[1,0.5]];portConstraint=eastwest;whiteSpace=wrap;html=1;" vertex="1" parent="R6GWSJiUPZhqTE8_T_ZJ-109">
          <mxGeometry y="164" width="330" height="46" as="geometry" />
        </mxCell>
        <mxCell id="R6GWSJiUPZhqTE8_T_ZJ-127" value="DeviceState" style="swimlane;fontStyle=1;align=center;verticalAlign=top;childLayout=stackLayout;horizontal=1;startSize=26;horizontalStack=0;resizeParent=1;resizeParentMax=0;resizeLast=0;collapsible=1;marginBottom=0;whiteSpace=wrap;html=1;" vertex="1" parent="R6GWSJiUPZhqTE8_T_ZJ-108">
          <mxGeometry x="410" y="60" width="330" height="210" as="geometry" />
        </mxCell>
        <mxCell id="R6GWSJiUPZhqTE8_T_ZJ-128" value="logger: logging.Logger | None" style="text;strokeColor=none;fillColor=none;align=left;verticalAlign=top;spacingLeft=4;spacingRight=4;overflow=hidden;rotatable=0;points=[[0,0.5],[1,0.5]];portConstraint=eastwest;whiteSpace=wrap;html=1;" vertex="1" parent="R6GWSJiUPZhqTE8_T_ZJ-127">
          <mxGeometry y="26" width="330" height="26" as="geometry" />
        </mxCell>
        <mxCell id="R6GWSJiUPZhqTE8_T_ZJ-129" value="subject: TaskSubjectGeneric | None" style="text;strokeColor=none;fillColor=none;align=left;verticalAlign=top;spacingLeft=4;spacingRight=4;overflow=hidden;rotatable=0;points=[[0,0.5],[1,0.5]];portConstraint=eastwest;whiteSpace=wrap;html=1;" vertex="1" parent="R6GWSJiUPZhqTE8_T_ZJ-127">
          <mxGeometry y="52" width="330" height="26" as="geometry" />
        </mxCell>
        <mxCell id="R6GWSJiUPZhqTE8_T_ZJ-130" value="exception_handler:&amp;nbsp;Callable[[Exception, Task], None]" style="text;strokeColor=none;fillColor=none;align=left;verticalAlign=top;spacingLeft=4;spacingRight=4;overflow=hidden;rotatable=0;points=[[0,0.5],[1,0.5]];portConstraint=eastwest;whiteSpace=wrap;html=1;" vertex="1" parent="R6GWSJiUPZhqTE8_T_ZJ-127">
          <mxGeometry y="78" width="330" height="26" as="geometry" />
        </mxCell>
        <mxCell id="R6GWSJiUPZhqTE8_T_ZJ-131" value="" style="line;strokeWidth=1;fillColor=none;align=left;verticalAlign=middle;spacingTop=-1;spacingLeft=3;spacingRight=3;rotatable=0;labelPosition=right;points=[];portConstraint=eastwest;strokeColor=inherit;" vertex="1" parent="R6GWSJiUPZhqTE8_T_ZJ-127">
          <mxGeometry y="104" width="330" height="8" as="geometry" />
        </mxCell>
        <mxCell id="R6GWSJiUPZhqTE8_T_ZJ-132" value="abstract async task() -&amp;gt; Awaitable" style="text;strokeColor=none;fillColor=none;align=left;verticalAlign=top;spacingLeft=4;spacingRight=4;overflow=hidden;rotatable=0;points=[[0,0.5],[1,0.5]];portConstraint=eastwest;whiteSpace=wrap;html=1;" vertex="1" parent="R6GWSJiUPZhqTE8_T_ZJ-127">
          <mxGeometry y="112" width="330" height="26" as="geometry" />
        </mxCell>
        <mxCell id="R6GWSJiUPZhqTE8_T_ZJ-133" value="async def run() -&amp;gt; Awaitable" style="text;strokeColor=none;fillColor=none;align=left;verticalAlign=top;spacingLeft=4;spacingRight=4;overflow=hidden;rotatable=0;points=[[0,0.5],[1,0.5]];portConstraint=eastwest;whiteSpace=wrap;html=1;" vertex="1" parent="R6GWSJiUPZhqTE8_T_ZJ-127">
          <mxGeometry y="138" width="330" height="26" as="geometry" />
        </mxCell>
        <mxCell id="R6GWSJiUPZhqTE8_T_ZJ-134" value="attach_task_manager(manager: TaskManager[TaskSubjectGeneric]) -&amp;gt; None" style="text;strokeColor=none;fillColor=none;align=left;verticalAlign=top;spacingLeft=4;spacingRight=4;overflow=hidden;rotatable=0;points=[[0,0.5],[1,0.5]];portConstraint=eastwest;whiteSpace=wrap;html=1;" vertex="1" parent="R6GWSJiUPZhqTE8_T_ZJ-127">
          <mxGeometry y="164" width="330" height="46" as="geometry" />
        </mxCell>
      </root>
    </mxGraphModel>
  </diagram>
</mxfile>
